<mxfile host="Electron" agent="Mozilla/5.0 (Windows NT 10.0; Win64; x64) AppleWebKit/537.36 (KHTML, like Gecko) draw.io/24.7.8 Chrome/128.0.6613.36 Electron/32.0.1 Safari/537.36" version="24.7.8">
  <diagram name="Page-1" id="dL3m1MZvvaclTK9tgAMI">
    <mxGraphModel dx="1687" dy="984" grid="1" gridSize="10" guides="1" tooltips="1" connect="1" arrows="1" fold="1" page="1" pageScale="1" pageWidth="827" pageHeight="1169" math="0" shadow="0">
      <root>
        <mxCell id="0" />
        <mxCell id="1" parent="0" />
        <mxCell id="eGgp_DsFlwLkPfk4Vn34-1" value="" style="shape=flexArrow;endArrow=classic;startArrow=classic;html=1;rounded=0;width=18.285714285714285;endSize=8.045714285714286;editable=0;movable=1;resizable=1;rotatable=1;deletable=1;locked=0;connectable=1;" parent="1" edge="1">
          <mxGeometry width="100" height="100" relative="1" as="geometry">
            <mxPoint x="780" y="230" as="sourcePoint" />
            <mxPoint x="54" y="230" as="targetPoint" />
            <Array as="points">
              <mxPoint x="410" y="230" />
            </Array>
          </mxGeometry>
        </mxCell>
        <mxCell id="eGgp_DsFlwLkPfk4Vn34-2" value="&lt;font size=&quot;1&quot;&gt;&lt;b style=&quot;font-size: 16px;&quot;&gt;CR&lt;/b&gt;&lt;/font&gt;" style="rounded=0;whiteSpace=wrap;html=1;" parent="1" vertex="1">
          <mxGeometry x="380" y="60" width="80" height="120" as="geometry" />
        </mxCell>
        <mxCell id="eGgp_DsFlwLkPfk4Vn34-3" value="&lt;b&gt;&lt;font style=&quot;font-size: 16px;&quot;&gt;KO/Z&lt;/font&gt;&lt;/b&gt;" style="rounded=0;whiteSpace=wrap;html=1;" parent="1" vertex="1">
          <mxGeometry x="80" y="280" width="80" height="120" as="geometry" />
        </mxCell>
        <mxCell id="eGgp_DsFlwLkPfk4Vn34-4" value="&lt;font style=&quot;font-size: 16px;&quot;&gt;&lt;b&gt;KS&lt;/b&gt;&lt;/font&gt;" style="rounded=0;whiteSpace=wrap;html=1;" parent="1" vertex="1">
          <mxGeometry x="200" y="280" width="80" height="120" as="geometry" />
        </mxCell>
        <mxCell id="eGgp_DsFlwLkPfk4Vn34-5" value="&lt;font style=&quot;font-size: 16px;&quot;&gt;&lt;b&gt;KT&lt;/b&gt;&lt;/font&gt;" style="rounded=0;whiteSpace=wrap;html=1;" parent="1" vertex="1">
          <mxGeometry x="320" y="280" width="80" height="120" as="geometry" />
        </mxCell>
        <mxCell id="eGgp_DsFlwLkPfk4Vn34-6" value="&lt;font style=&quot;font-size: 16px;&quot;&gt;&lt;b&gt;ZPS&lt;/b&gt;&lt;/font&gt;" style="rounded=0;whiteSpace=wrap;html=1;" parent="1" vertex="1">
          <mxGeometry x="440" y="280" width="80" height="120" as="geometry" />
        </mxCell>
        <mxCell id="eGgp_DsFlwLkPfk4Vn34-7" value="&lt;font style=&quot;font-size: 16px;&quot;&gt;&lt;b&gt;KU&lt;/b&gt;&lt;/font&gt;" style="rounded=0;whiteSpace=wrap;html=1;" parent="1" vertex="1">
          <mxGeometry x="560" y="280" width="80" height="120" as="geometry" />
        </mxCell>
        <mxCell id="eGgp_DsFlwLkPfk4Vn34-8" value="&lt;font style=&quot;font-size: 16px;&quot;&gt;&lt;b&gt;ABS&lt;/b&gt;&lt;/font&gt;" style="rounded=0;whiteSpace=wrap;html=1;" parent="1" vertex="1">
          <mxGeometry x="680" y="280" width="80" height="120" as="geometry" />
        </mxCell>
        <mxCell id="eGgp_DsFlwLkPfk4Vn34-9" value="&lt;b&gt;&lt;font style=&quot;font-size: 16px;&quot;&gt;IT&lt;/font&gt;&lt;/b&gt;" style="rounded=1;whiteSpace=wrap;html=1;" parent="1" vertex="1">
          <mxGeometry x="520" y="130" width="100" height="40" as="geometry" />
        </mxCell>
        <mxCell id="N9WkCjSRlsPcHwqoH5X8-2" value="" style="edgeStyle=orthogonalEdgeStyle;rounded=0;orthogonalLoop=1;jettySize=auto;html=1;shape=flexArrow;endWidth=11.923076923076923;endSize=6.038461538461538;width=6.153846153846153;entryX=1;entryY=0.25;entryDx=0;entryDy=0;" edge="1" parent="1" source="N9WkCjSRlsPcHwqoH5X8-1" target="eGgp_DsFlwLkPfk4Vn34-2">
          <mxGeometry relative="1" as="geometry" />
        </mxCell>
        <mxCell id="N9WkCjSRlsPcHwqoH5X8-1" value="&lt;b&gt;&lt;font style=&quot;font-size: 16px;&quot;&gt;prekidači/&lt;/font&gt;&lt;/b&gt;&lt;div&gt;&lt;b&gt;&lt;font style=&quot;font-size: 16px;&quot;&gt;tasteri...&lt;/font&gt;&lt;/b&gt;&lt;/div&gt;" style="rounded=1;whiteSpace=wrap;html=1;" vertex="1" parent="1">
          <mxGeometry x="520" y="70" width="100" height="40" as="geometry" />
        </mxCell>
        <mxCell id="N9WkCjSRlsPcHwqoH5X8-5" value="" style="shape=flexArrow;endArrow=classic;startArrow=classic;html=1;rounded=0;startWidth=8.470588235294118;startSize=2.724705882352941;endWidth=8.470588235294118;endSize=2.724705882352941;width=8.235294117647058;" edge="1" parent="1">
          <mxGeometry width="100" height="100" relative="1" as="geometry">
            <mxPoint x="120" y="280" as="sourcePoint" />
            <mxPoint x="119.88" y="240" as="targetPoint" />
          </mxGeometry>
        </mxCell>
        <mxCell id="N9WkCjSRlsPcHwqoH5X8-11" value="" style="shape=flexArrow;endArrow=classic;startArrow=classic;html=1;rounded=0;startWidth=8.470588235294118;startSize=2.724705882352941;endWidth=8.470588235294118;endSize=2.724705882352941;width=8.235294117647058;" edge="1" parent="1">
          <mxGeometry width="100" height="100" relative="1" as="geometry">
            <mxPoint x="239.78" y="280" as="sourcePoint" />
            <mxPoint x="239.66" y="240" as="targetPoint" />
          </mxGeometry>
        </mxCell>
        <mxCell id="N9WkCjSRlsPcHwqoH5X8-12" value="" style="shape=flexArrow;endArrow=classic;startArrow=classic;html=1;rounded=0;startWidth=8.470588235294118;startSize=2.724705882352941;endWidth=8.470588235294118;endSize=2.724705882352941;width=8.235294117647058;" edge="1" parent="1">
          <mxGeometry width="100" height="100" relative="1" as="geometry">
            <mxPoint x="359.78" y="280" as="sourcePoint" />
            <mxPoint x="359.65999999999997" y="240" as="targetPoint" />
          </mxGeometry>
        </mxCell>
        <mxCell id="N9WkCjSRlsPcHwqoH5X8-13" value="" style="shape=flexArrow;endArrow=classic;startArrow=classic;html=1;rounded=0;startWidth=8.470588235294118;startSize=2.724705882352941;endWidth=8.470588235294118;endSize=2.724705882352941;width=8.235294117647058;" edge="1" parent="1">
          <mxGeometry width="100" height="100" relative="1" as="geometry">
            <mxPoint x="479.78" y="280" as="sourcePoint" />
            <mxPoint x="479.65999999999997" y="240" as="targetPoint" />
          </mxGeometry>
        </mxCell>
        <mxCell id="N9WkCjSRlsPcHwqoH5X8-14" value="" style="shape=flexArrow;endArrow=classic;startArrow=classic;html=1;rounded=0;startWidth=8.470588235294118;startSize=2.724705882352941;endWidth=8.470588235294118;endSize=2.724705882352941;width=8.235294117647058;" edge="1" parent="1">
          <mxGeometry width="100" height="100" relative="1" as="geometry">
            <mxPoint x="600.12" y="280" as="sourcePoint" />
            <mxPoint x="600" y="240" as="targetPoint" />
          </mxGeometry>
        </mxCell>
        <mxCell id="N9WkCjSRlsPcHwqoH5X8-15" value="" style="shape=flexArrow;endArrow=classic;startArrow=classic;html=1;rounded=0;startWidth=8.470588235294118;startSize=2.724705882352941;endWidth=8.470588235294118;endSize=2.724705882352941;width=8.235294117647058;" edge="1" parent="1">
          <mxGeometry width="100" height="100" relative="1" as="geometry">
            <mxPoint x="719.78" y="280" as="sourcePoint" />
            <mxPoint x="719.66" y="240" as="targetPoint" />
          </mxGeometry>
        </mxCell>
        <mxCell id="N9WkCjSRlsPcHwqoH5X8-16" value="" style="shape=flexArrow;endArrow=classic;startArrow=classic;html=1;rounded=0;startWidth=8.470588235294118;startSize=2.724705882352941;endWidth=8.470588235294118;endSize=2.724705882352941;width=8.235294117647058;" edge="1" parent="1">
          <mxGeometry width="100" height="100" relative="1" as="geometry">
            <mxPoint x="419.78" y="220" as="sourcePoint" />
            <mxPoint x="419.65999999999997" y="180" as="targetPoint" />
          </mxGeometry>
        </mxCell>
        <mxCell id="N9WkCjSRlsPcHwqoH5X8-18" value="&lt;b&gt;UART&lt;/b&gt;" style="text;html=1;align=center;verticalAlign=middle;resizable=1;points=[];autosize=1;strokeColor=none;fillColor=none;editable=1;movable=1;rotatable=1;deletable=1;locked=0;connectable=1;" vertex="1" parent="1">
          <mxGeometry x="390" y="220" width="60" height="22" as="geometry" />
        </mxCell>
        <mxCell id="N9WkCjSRlsPcHwqoH5X8-24" value="&lt;span style=&quot;font-size: 16px;&quot;&gt;&lt;b&gt;RF ID&amp;nbsp;&lt;/b&gt;&lt;/span&gt;&lt;div&gt;&lt;span style=&quot;font-size: 16px;&quot;&gt;&lt;b&gt;čitač&lt;/b&gt;&lt;/span&gt;&lt;/div&gt;" style="rounded=1;whiteSpace=wrap;html=1;" vertex="1" parent="1">
          <mxGeometry x="200" y="90" width="100" height="60" as="geometry" />
        </mxCell>
        <mxCell id="N9WkCjSRlsPcHwqoH5X8-26" value="" style="shape=flexArrow;endArrow=classic;startArrow=classic;html=1;rounded=0;entryX=0;entryY=0.5;entryDx=0;entryDy=0;exitX=1;exitY=0.5;exitDx=0;exitDy=0;editable=0;" edge="1" parent="1" source="N9WkCjSRlsPcHwqoH5X8-24" target="eGgp_DsFlwLkPfk4Vn34-2">
          <mxGeometry width="100" height="100" relative="1" as="geometry">
            <mxPoint x="270" y="210" as="sourcePoint" />
            <mxPoint x="370" y="110" as="targetPoint" />
          </mxGeometry>
        </mxCell>
        <mxCell id="N9WkCjSRlsPcHwqoH5X8-27" value="" style="edgeStyle=orthogonalEdgeStyle;rounded=0;orthogonalLoop=1;jettySize=auto;html=1;shape=flexArrow;endWidth=11.923076923076923;endSize=6.038461538461538;width=6.153846153846153;" edge="1" parent="1">
          <mxGeometry relative="1" as="geometry">
            <mxPoint x="459.9999999999998" y="150" as="sourcePoint" />
            <mxPoint x="520" y="150" as="targetPoint" />
          </mxGeometry>
        </mxCell>
        <mxCell id="N9WkCjSRlsPcHwqoH5X8-28" value="&lt;b style=&quot;font-size: 10px;&quot;&gt;I2C&lt;/b&gt;" style="text;html=1;align=center;verticalAlign=middle;resizable=1;points=[];autosize=1;strokeColor=none;fillColor=none;fontSize=10;" vertex="1" parent="1">
          <mxGeometry x="320" y="105" width="40" height="30" as="geometry" />
        </mxCell>
      </root>
    </mxGraphModel>
  </diagram>
</mxfile>
